<svg width="512" height="512" viewBox="0 0 512 512" fill="none" xmlns="http://www.w3.org/2000/svg" role="img" aria-label="AI图片图标">
<title>AI图片图标</title>
<defs>
<linearGradient id="bgGrad" x1="64" y1="64" x2="448" y2="448" gradientUnits="userSpaceOnUse"><stop offset="0" stop-color="#7B5CFF"/><stop offset="0.55" stop-color="#A76BFF"/><stop offset="1" stop-color="#FF5CB8"/></linearGradient>
<linearGradient id="goldGrad" x1="154" y1="92" x2="390" y2="404" gradientUnits="userSpaceOnUse"><stop offset="0" stop-color="#FFE98A"/><stop offset="0.45" stop-color="#FFC83D"/><stop offset="1" stop-color="#FF8A3D"/></linearGradient>
<linearGradient id="pinkGrad" x1="128" y1="120" x2="384" y2="392" gradientUnits="userSpaceOnUse"><stop offset="0" stop-color="#FFFFFF"/><stop offset="1" stop-color="#FFE6F4"/></linearGradient>
<filter id="softShadow" x="-20%" y="-20%" width="140%" height="150%" filterUnits="objectBoundingBox" color-interpolation-filters="sRGB"><feDropShadow dx="0" dy="18" stdDeviation="22" flood-color="#6D4DFF" flood-opacity="0.20"/></filter>
<filter id="innerGlow" x="-20%" y="-20%" width="140%" height="140%" filterUnits="objectBoundingBox" color-interpolation-filters="sRGB"><feDropShadow dx="0" dy="0" stdDeviation="8" flood-color="#FFFFFF" flood-opacity="0.55"/></filter>
</defs>
<rect x="36" y="36" width="440" height="440" rx="116" fill="url(#bgGrad)"/>
<circle cx="404" cy="122" r="12" fill="#FFE98A" opacity="0.95"/>
<circle cx="112" cy="388" r="8" fill="#FFFFFF" opacity="0.70"/>
<circle cx="388" cy="390" r="28" fill="#FF7BC8" opacity="0.28"/>
<path d="M86 150C144 94 246 86 320 116C383 142 420 190 430 244" stroke="white" stroke-opacity="0.24" stroke-width="8" stroke-linecap="round"/>

<g filter="url(#softShadow)">
<rect x="130" y="142" width="252" height="228" rx="42" fill="url(#pinkGrad)" opacity="0.98"/>
<rect x="154" y="166" width="204" height="180" rx="30" fill="#FFFFFF" opacity="0.70"/>
<circle cx="210" cy="216" r="26" fill="url(#goldGrad)"/>
<path d="M172 316L226 258C234 249 248 250 255 260L280 294L297 274C305 265 319 265 327 275L354 316H172Z" fill="url(#bgGrad)" opacity="0.90"/>
<path d="M180 182H332" stroke="#B6A8FF" stroke-width="10" stroke-linecap="round" opacity="0.45"/>
</g>
<g filter="url(#innerGlow)"><path d="M374 126L384 150L410 154L390 171L396 197L374 183L352 197L358 171L338 154L364 150L374 126Z" fill="#FFE98A"/></g>

</svg>